<?xml version="1.0" encoding="utf-8"?>
<svg xmlns="http://www.w3.org/2000/svg" xmlns:xlink="http://www.w3.org/1999/xlink" style="margin: auto; background: rgb(241, 242, 243); display: block; shape-rendering: auto;" width="224px" height="224px" viewBox="0 0 100 100" preserveAspectRatio="xMidYMid">
<g transform="rotate(0 50 50)">
  <rect x="49" y="30.5" rx="1" ry="2.07" width="2" height="9" fill="#985d4e">
    <animate attributeName="opacity" values="1;0" keyTimes="0;1" dur="1.3513513513513513s" begin="-1.287001287001287s" repeatCount="indefinite"></animate>
  </rect>
</g><g transform="rotate(17.142857142857142 50 50)">
  <rect x="49" y="30.5" rx="1" ry="2.07" width="2" height="9" fill="#985d4e">
    <animate attributeName="opacity" values="1;0" keyTimes="0;1" dur="1.3513513513513513s" begin="-1.2226512226512227s" repeatCount="indefinite"></animate>
  </rect>
</g><g transform="rotate(34.285714285714285 50 50)">
  <rect x="49" y="30.5" rx="1" ry="2.07" width="2" height="9" fill="#985d4e">
    <animate attributeName="opacity" values="1;0" keyTimes="0;1" dur="1.3513513513513513s" begin="-1.1583011583011584s" repeatCount="indefinite"></animate>
  </rect>
</g><g transform="rotate(51.42857142857143 50 50)">
  <rect x="49" y="30.5" rx="1" ry="2.07" width="2" height="9" fill="#985d4e">
    <animate attributeName="opacity" values="1;0" keyTimes="0;1" dur="1.3513513513513513s" begin="-1.093951093951094s" repeatCount="indefinite"></animate>
  </rect>
</g><g transform="rotate(68.57142857142857 50 50)">
  <rect x="49" y="30.5" rx="1" ry="2.07" width="2" height="9" fill="#985d4e">
    <animate attributeName="opacity" values="1;0" keyTimes="0;1" dur="1.3513513513513513s" begin="-1.0296010296010296s" repeatCount="indefinite"></animate>
  </rect>
</g><g transform="rotate(85.71428571428571 50 50)">
  <rect x="49" y="30.5" rx="1" ry="2.07" width="2" height="9" fill="#985d4e">
    <animate attributeName="opacity" values="1;0" keyTimes="0;1" dur="1.3513513513513513s" begin="-0.9652509652509653s" repeatCount="indefinite"></animate>
  </rect>
</g><g transform="rotate(102.85714285714286 50 50)">
  <rect x="49" y="30.5" rx="1" ry="2.07" width="2" height="9" fill="#985d4e">
    <animate attributeName="opacity" values="1;0" keyTimes="0;1" dur="1.3513513513513513s" begin="-0.9009009009009009s" repeatCount="indefinite"></animate>
  </rect>
</g><g transform="rotate(120 50 50)">
  <rect x="49" y="30.5" rx="1" ry="2.07" width="2" height="9" fill="#985d4e">
    <animate attributeName="opacity" values="1;0" keyTimes="0;1" dur="1.3513513513513513s" begin="-0.8365508365508366s" repeatCount="indefinite"></animate>
  </rect>
</g><g transform="rotate(137.14285714285714 50 50)">
  <rect x="49" y="30.5" rx="1" ry="2.07" width="2" height="9" fill="#985d4e">
    <animate attributeName="opacity" values="1;0" keyTimes="0;1" dur="1.3513513513513513s" begin="-0.7722007722007722s" repeatCount="indefinite"></animate>
  </rect>
</g><g transform="rotate(154.28571428571428 50 50)">
  <rect x="49" y="30.5" rx="1" ry="2.07" width="2" height="9" fill="#985d4e">
    <animate attributeName="opacity" values="1;0" keyTimes="0;1" dur="1.3513513513513513s" begin="-0.7078507078507079s" repeatCount="indefinite"></animate>
  </rect>
</g><g transform="rotate(171.42857142857142 50 50)">
  <rect x="49" y="30.5" rx="1" ry="2.07" width="2" height="9" fill="#985d4e">
    <animate attributeName="opacity" values="1;0" keyTimes="0;1" dur="1.3513513513513513s" begin="-0.6435006435006435s" repeatCount="indefinite"></animate>
  </rect>
</g><g transform="rotate(188.57142857142858 50 50)">
  <rect x="49" y="30.5" rx="1" ry="2.07" width="2" height="9" fill="#985d4e">
    <animate attributeName="opacity" values="1;0" keyTimes="0;1" dur="1.3513513513513513s" begin="-0.5791505791505792s" repeatCount="indefinite"></animate>
  </rect>
</g><g transform="rotate(205.71428571428572 50 50)">
  <rect x="49" y="30.5" rx="1" ry="2.07" width="2" height="9" fill="#985d4e">
    <animate attributeName="opacity" values="1;0" keyTimes="0;1" dur="1.3513513513513513s" begin="-0.5148005148005148s" repeatCount="indefinite"></animate>
  </rect>
</g><g transform="rotate(222.85714285714286 50 50)">
  <rect x="49" y="30.5" rx="1" ry="2.07" width="2" height="9" fill="#985d4e">
    <animate attributeName="opacity" values="1;0" keyTimes="0;1" dur="1.3513513513513513s" begin="-0.45045045045045046s" repeatCount="indefinite"></animate>
  </rect>
</g><g transform="rotate(240 50 50)">
  <rect x="49" y="30.5" rx="1" ry="2.07" width="2" height="9" fill="#985d4e">
    <animate attributeName="opacity" values="1;0" keyTimes="0;1" dur="1.3513513513513513s" begin="-0.3861003861003861s" repeatCount="indefinite"></animate>
  </rect>
</g><g transform="rotate(257.14285714285717 50 50)">
  <rect x="49" y="30.5" rx="1" ry="2.07" width="2" height="9" fill="#985d4e">
    <animate attributeName="opacity" values="1;0" keyTimes="0;1" dur="1.3513513513513513s" begin="-0.32175032175032175s" repeatCount="indefinite"></animate>
  </rect>
</g><g transform="rotate(274.2857142857143 50 50)">
  <rect x="49" y="30.5" rx="1" ry="2.07" width="2" height="9" fill="#985d4e">
    <animate attributeName="opacity" values="1;0" keyTimes="0;1" dur="1.3513513513513513s" begin="-0.2574002574002574s" repeatCount="indefinite"></animate>
  </rect>
</g><g transform="rotate(291.42857142857144 50 50)">
  <rect x="49" y="30.5" rx="1" ry="2.07" width="2" height="9" fill="#985d4e">
    <animate attributeName="opacity" values="1;0" keyTimes="0;1" dur="1.3513513513513513s" begin="-0.19305019305019305s" repeatCount="indefinite"></animate>
  </rect>
</g><g transform="rotate(308.57142857142856 50 50)">
  <rect x="49" y="30.5" rx="1" ry="2.07" width="2" height="9" fill="#985d4e">
    <animate attributeName="opacity" values="1;0" keyTimes="0;1" dur="1.3513513513513513s" begin="-0.1287001287001287s" repeatCount="indefinite"></animate>
  </rect>
</g><g transform="rotate(325.7142857142857 50 50)">
  <rect x="49" y="30.5" rx="1" ry="2.07" width="2" height="9" fill="#985d4e">
    <animate attributeName="opacity" values="1;0" keyTimes="0;1" dur="1.3513513513513513s" begin="-0.06435006435006435s" repeatCount="indefinite"></animate>
  </rect>
</g><g transform="rotate(342.85714285714283 50 50)">
  <rect x="49" y="30.5" rx="1" ry="2.07" width="2" height="9" fill="#985d4e">
    <animate attributeName="opacity" values="1;0" keyTimes="0;1" dur="1.3513513513513513s" begin="0s" repeatCount="indefinite"></animate>
  </rect>
</g>
<!-- [ldio] generated by https://loading.io/ --></svg>